<?xml version="1.0" encoding="UTF-8" standalone="no"?>
<svg width="24px" height="24px" viewBox="0 0 24 24" version="1.1" xmlns="http://www.w3.org/2000/svg" xmlns:xlink="http://www.w3.org/1999/xlink" xmlns:sketch="http://www.bohemiancoding.com/sketch/ns">
    <!-- Generator: Sketch 3.3.3 (12081) - http://www.bohemiancoding.com/sketch -->
    <title>Rectangle 1 + ic_flight_land_24px + ic_format_paint_24px</title>
    <desc>Created with Sketch.</desc>
    <defs></defs>
    <g id="Page-1" stroke="none" stroke-width="1" fill="none" fill-rule="evenodd" sketch:type="MSPage">
        <g id="Rectangle-1-+-ic_flight_land_24px-+-ic_format_paint_24px" sketch:type="MSLayerGroup">
            <g id="ic_flight_land_24px" transform="translate(2.000000, 2.000000)" fill="#000000" sketch:type="MSShapeGroup">
                <g id="Clipped" transform="translate(0.000000, 18.000000)">
                    <path d="M0.5,0 L19.5,0 L19.5,2 L0.5,2 L0.5,0 Z" id="Shape"></path>
                </g>
                <path d="M11.96967,6.53033009 L11.9696699,9.53033009 L11.9696699,16.2803301 C11.9696699,16.6928301 11.6321699,17.0303301 11.2196699,17.0303301 L9.71966991,17.0303301 C9.30716991,17.0303301 8.96966991,16.6928301 8.96966991,16.2803301 L8.96966991,8.03033009 L8.96966991,6.53033009 L5.96966991,6.53033009 C5.55716991,6.53033009 5.21966991,6.19283009 5.21966991,5.78033009 L5.21966991,2.78033009 C5.21966991,2.36783009 5.55716991,2.03033009 5.96966991,2.03033009 L14.9696699,2.03033009 C15.3821699,2.03033009 15.7196699,2.36783009 15.7196699,2.78033009 L15.7196699,3.53033009 L15.7196699,5.03033009 L15.7196699,5.78033009 C15.7196699,6.19283009 15.3821699,6.53033009 14.9696699,6.53033009 L11.96967,6.53033009 Z" id="Shape" transform="translate(10.469670, 9.530330) rotate(-45.000000) translate(-10.469670, -9.530330) "></path>
            </g>
        </g>
    </g>
</svg>